# xmcd CD database file
#
# Track frame offsets:
#	150
#	17823
#	35979
#	63415
#	74318
#	103607
#	115644
#	126094
#	144736
#	161437
#	175698
#	188829
#
# Disc length: 2660 seconds
#
# Revision: 0
# Processed by: cddbd v1.5.2PL0 Copyright (c) Steve Scherf et al.
# Submitted via: CDex 1.51
#
DISCID=a60a620c
DTITLE=Kenny Ball - Lonnie Donegan Presents
DYEAR=1961
DGENRE=Jazz
TTITLE0=Savoy Blues
TTITLE1=Ostrich Walk
TTITLE2=Blue Turning Grey Over You
TTITLE3=Big Noise From Winnetka
TTITLE4=High Society
TTITLE5=Dark Eyes
TTITLE6=You Must Have Been A Beautiful Baby
TTITLE7=Tin Roof Blues
TTITLE8=Fingerbuster
TTITLE9=Putting On The Ritz
TTITLE10=Potato Head Blues
TTITLE11=Samantha
EXTD=YEAR: 1961
EXTT0=
EXTT1=
EXTT2=
EXTT3=
EXTT4=
EXTT5=
EXTT6=
EXTT7=
EXTT8=
EXTT9=
EXTT10=
EXTT11=
PLAYORDER=
